Coordinates
version=1
nRows=41
nColumns=38
inDegrees=no

Units are S.I. units (second, meters, Newtons, ...)
If the header above contains a line with 'inDegrees', this indicates whether rotational values are in degrees (yes) or radians (no).

endheader
time	pelvis_tilt	pelvis_list	pelvis_rotation	pelvis_tx	pelvis_ty	pelvis_tz	hip_flexion_r	hip_adduction_r	hip_rotation_r	knee_angle_r	ankle_angle_r	subtalar_angle_r	mtp_angle_r	hip_flexion_l	hip_adduction_l	hip_rotation_l	knee_angle_l	ankle_angle_l	subtalar_angle_l	mtp_angle_l	lumbar_extension	lumbar_bending	lumbar_rotation	arm_flex_r	arm_add_r	arm_rot_r	elbow_flex_r	pro_sup_r	wrist_flex_r	wrist_dev_r	arm_flex_l	arm_add_l	arm_rot_l	elbow_flex_l	pro_sup_l	wrist_flex_l	wrist_dev_l
3.34	0.703672	1.4984	-2.32558	0.822549	0.0749733	0.928426	-0.24468	0.000387094	0.00106697	0.0103128	0.156784	0	0	0.561689	-0.0794961	-0.175557	0.890537	0.172239	0	0	-0.254843	-0.00315401	0.103952	-0.194482	-0.401162	0.265826	1.84548	1.51849	0	0	-0.233728	-0.193129	0.139364	0.762762	0.319466	0	0
3.35	0.706967	1.50186	-2.33692	0.823784	0.068173	0.926929	-0.248761	-0.00136455	0.00537171	0.011853	0.162719	0	0	0.554204	-0.0844969	-0.179522	0.820634	0.167182	0	0	-0.250102	-0.00041729	0.0928668	-0.205203	-0.408683	0.279876	1.85933	1.51098	0	0	-0.232198	-0.195412	0.138231	0.757512	0.313369	0	0
3.36	0.73512	1.50653	-2.37216	0.824984	0.0611254	0.925272	-0.251296	-0.00302172	0.00993624	0.0121584	0.168372	0	0	0.546893	-0.0880007	-0.178715	0.749521	0.158499	0	0	-0.243571	0.000975851	0.0832647	-0.25048	-0.34161	0.195001	1.8695	1.5708	0	0	-0.230182	-0.199038	0.144005	0.755034	0.362107	0	0
3.37	0.704492	1.5089	-2.34847	0.826501	0.0541903	0.923697	-0.258288	-0.00399035	0.0147964	0.0124041	0.175344	0	0	0.533848	-0.0910118	-0.171672	0.678633	0.148595	0	0	-0.238974	0.00375026	0.0707724	-0.231594	-0.421808	0.296889	1.88615	1.54167	0	0	-0.239504	-0.229654	0.4082	0.747592	1.44548	0	0
3.38	0.702868	1.51295	-2.35373	0.82792	0.0469085	0.921923	-0.262545	-0.00493611	0.0210093	0.0135545	0.183022	0	0	0.52157	-0.0937372	-0.160413	0.608698	0.139894	0	0	-0.233144	0.00690793	0.0572795	-0.244263	-0.429678	0.308249	1.90047	1.54667	0	0	-0.238953	-0.232473	0.411803	0.741476	1.4497	0	0
3.39	0.689758	1.51655	-2.34795	0.829332	0.0394649	0.920119	-0.26684	-0.00592986	0.0267404	0.0169525	0.191024	0	0	0.507316	-0.0971981	-0.146621	0.541838	0.131286	0	0	-0.227943	0.0100234	0.0439455	-0.257817	-0.438198	0.320194	1.91544	1.54956	0	0	-0.238301	-0.234791	0.415139	0.734911	1.4503	0	0
3.4	0.666216	1.51972	-2.33241	0.830731	0.0318106	0.918319	-0.270703	-0.00715985	0.0320748	0.0229523	0.199527	0	0	0.491857	-0.101907	-0.132578	0.479593	0.120796	0	0	-0.223137	0.0130349	0.031107	-0.271963	-0.447003	0.332055	1.93065	1.55015	0	0	-0.237747	-0.237107	0.417032	0.728175	1.44747	0	0
3.41	0.635654	1.52384	-2.311	0.83207	0.0240678	0.916401	-0.272548	-0.00790523	0.0377238	0.0312439	0.207877	0	0	0.478033	-0.109355	-0.120697	0.425241	0.109601	0	0	-0.217433	0.0165971	0.0190421	-0.284685	-0.45637	0.344848	1.9459	1.53015	0	0	-0.237759	-0.238685	0.415403	0.720936	1.45041	0	0
3.42	0.624311	1.52742	-2.3089	0.83335	0.0160787	0.914524	-0.27302	-0.00990133	0.0412195	0.0421564	0.217389	0	0	0.46311	-0.115955	-0.109362	0.373798	0.0951476	0	0	-0.211853	0.0181428	0.010141	-0.336941	-0.393527	0.261718	1.95821	1.5708	0	0	-0.234996	-0.241842	0.420145	0.711859	1.44551	0	0
3.43	0.500974	1.52732	-2.19626	0.835013	0.00825929	0.91282	-0.277257	-0.0116865	0.0450107	0.0572229	0.228679	0	0	0.443476	-0.12475	-0.101072	0.33144	0.0838975	0	0	-0.212046	0.0240542	-0.00279574	-0.330218	-0.467924	0.21166	2.00364	0.0546694	0	0	-0.234575	-0.242371	0.42091	0.704569	1.43078	0	0
3.44	0.465762	1.52871	-2.17337	0.836396	6.37488e-06	0.911099	-0.275733	-0.0160972	0.0488348	0.0758933	0.241337	0	0	0.426862	-0.132772	-0.0988018	0.295681	0.0744373	0	0	-0.207251	0.0249484	-0.0133619	-0.342444	-0.480069	0.225757	2.01583	0.0548273	0	0	-0.234669	-0.243275	0.418623	0.695702	1.41944	0	0
3.45	0.440064	1.52989	-2.16102	0.837799	-0.00847864	0.909373	-0.273182	-0.0214981	0.0537177	0.0962557	0.254236	0	0	0.412743	-0.141427	-0.105346	0.272714	0.0722715	0	0	-0.201899	0.0252297	-0.0234511	-0.355474	-0.492769	0.240531	2.03094	0.102107	0	0	-0.235971	-0.242703	0.408439	0.686418	1.42448	0	0
3.46	0.438816	1.52957	-2.17385	0.839328	-0.0171273	0.907843	-0.270148	-0.0292752	0.0577719	0.118799	0.267687	0	0	0.398264	-0.148205	-0.116514	0.258018	0.0714632	0	0	-0.196979	0.0237508	-0.0330388	-0.369651	-0.505028	0.248752	2.04284	0.095481	0	0	-0.236394	-0.242786	0.40531	0.67691	1.41731	0	0
3.47	0.465376	1.52801	-2.21465	0.841051	-0.0259251	0.906471	-0.266212	-0.0392137	0.0615115	0.143621	0.280943	0	0	0.38514	-0.153165	-0.134393	0.254097	0.0686514	0	0	-0.192254	0.0207824	-0.042467	-0.386009	-0.517022	0.253895	2.05498	0.0895896	0	0	-0.236072	-0.242733	0.405065	0.6665	1.41192	0	0
3.48	0.513562	1.52529	-2.27716	0.843009	-0.0349365	0.90515	-0.260979	-0.0513218	0.0650315	0.171627	0.294753	0	0	0.373495	-0.156585	-0.161325	0.260337	0.0625719	0	0	-0.187457	0.0166757	-0.0511951	-0.406154	-0.528367	0.254218	2.06802	0.0842921	0	0	-0.235007	-0.242633	0.406041	0.656146	1.40726	0	0
3.49	0.577487	1.52128	-2.35528	0.845319	-0.0442165	0.903836	-0.254432	-0.0655326	0.0696187	0.202493	0.308317	0	0	0.362197	-0.157823	-0.197389	0.271037	0.0547665	0	0	-0.182381	0.0114551	-0.0598356	-0.429763	-0.539779	0.250312	2.08139	0.0795995	0	0	-0.233639	-0.242219	0.407558	0.646018	1.40237	0	0
3.5	0.660172	1.51649	-2.45085	0.848026	-0.0535751	0.902525	-0.245661	-0.0812024	0.0754259	0.235704	0.320417	0	0	0.351508	-0.155727	-0.236852	0.279097	0.0434259	0	0	-0.176363	0.00523493	-0.0702116	-0.455185	-0.551784	0.243676	2.09443	0.0754479	0	0	-0.232222	-0.24171	0.409986	0.636063	1.39878	0	0
3.51	0.761775	1.51092	-2.56209	0.851184	-0.0626213	0.901271	-0.233668	-0.0972086	0.0818282	0.272233	0.329915	0	0	0.343555	-0.14947	-0.272587	0.28309	0.0236378	0	0	-0.169547	-0.00216174	-0.0840482	-0.480484	-0.563519	0.236094	2.10692	0.0713769	0	0	-0.229875	-0.242001	0.412511	0.626478	1.39682	0	0
3.52	0.864582	1.50256	-2.67209	0.85481	-0.07138	0.900322	-0.218796	-0.115412	0.0869114	0.313736	0.337342	0	0	0.336279	-0.137297	-0.301326	0.282522	-0.00121983	0	0	-0.163334	-0.0118888	-0.100804	-0.505373	-0.575005	0.227576	2.11834	0.0672182	0	0	-0.226415	-0.242726	0.415254	0.616844	1.39798	0	0
3.53	0.953129	1.49151	-2.76556	0.858872	-0.0799242	0.899736	-0.200942	-0.135558	0.0900329	0.361111	0.341607	0	0	0.330215	-0.120199	-0.321783	0.282647	-0.0212809	0	0	-0.1579	-0.0236267	-0.120285	-0.530347	-0.585796	0.216772	2.12806	0.0625095	0	0	-0.222242	-0.243781	0.41761	0.607794	1.40352	0	0
3.54	1.01339	1.47957	-2.82881	0.863103	-0.0883471	0.899553	-0.181351	-0.155114	0.0923031	0.412967	0.34064	0	0	0.326707	-0.102085	-0.33637	0.290392	-0.0274533	0	0	-0.153693	-0.0356123	-0.142136	-0.554651	-0.596098	0.204792	2.13585	0.0579414	0	0	-0.218606	-0.245738	0.419446	0.601615	1.41329	0	0
3.55	1.04717	1.46862	-2.86494	0.867177	-0.0967228	0.899771	-0.160706	-0.172248	0.0946793	0.467687	0.333047	0	0	0.326382	-0.086796	-0.347861	0.308732	-0.0201326	0	0	-0.150558	-0.0462886	-0.164709	-0.57863	-0.605653	0.191519	2.14224	0.0530021	0	0	-0.215987	-0.248632	0.418341	0.598995	1.42584	0	0
3.56	1.05366	1.45954	-2.87362	0.871	-0.10523	0.900416	-0.141517	-0.186128	0.0981584	0.521633	0.317139	0	0	0.326439	-0.0750172	-0.353933	0.332876	-0.00751659	0	0	-0.149128	-0.0543823	-0.187394	-0.602661	-0.614713	0.176711	2.14827	0.0477651	0	0	-0.214662	-0.252108	0.414165	0.599233	1.43999	0	0
3.57	1.0412	1.45329	-2.8646	0.874436	-0.113875	0.901422	-0.122189	-0.196416	0.101709	0.575264	0.290425	0	0	0.324286	-0.0668522	-0.354817	0.355935	0.00591604	0	0	-0.148845	-0.0589668	-0.208538	-0.627639	-0.62321	0.160439	2.15618	0.0643538	0	0	-0.214488	-0.254793	0.40178	0.600561	1.48256	0	0
3.58	1.01538	1.44806	-2.84335	0.877672	-0.122554	0.902853	-0.102402	-0.205803	0.102659	0.628566	0.255278	0	0	0.31566	-0.0578403	-0.349073	0.368319	0.0165273	0	0	-0.149899	-0.0618225	-0.228797	-0.651131	-0.631572	0.14144	2.1611	0.0351055	0	0	-0.215009	-0.256382	0.383105	0.602495	1.53398	0	0
3.59	1.03957	1.44013	-2.87292	0.880491	-0.131233	0.903302	-0.0592837	-0.236978	0.0563931	0.708131	0.219627	0	0	0.309734	-0.0441458	-0.346229	0.375958	0.0284601	0	0	-0.144007	-0.0704962	-0.247623	-0.676758	-0.638453	0.123077	2.16875	0.0269839	0	0	-0.218389	-0.267001	0.393243	0.615929	1.52168	0	0
3.6	1.04153	1.43779	-2.88007	0.883287	-0.139526	0.904883	-0.0318293	-0.243516	0.0579643	0.759075	0.169336	0	0	0.299655	-0.035599	-0.343163	0.37617	0.037015	0	0	-0.141744	-0.0738342	-0.261798	-0.718497	-0.583986	0.1954	2.14016	1.5708	0	0	-0.214979	-0.275607	0.402586	0.6209	1.56515	0	0
3.61	1.02428	1.4354	-2.86993	0.886173	-0.147201	0.906347	-0.00355362	-0.24918	0.060062	0.812052	0.119773	0	0	0.28648	-0.0280935	-0.34548	0.374204	0.0445583	0	0	-0.140564	-0.074931	-0.281385	-0.701481	-0.666779	0.268007	2.14714	1.5688	0	0	-0.215192	-0.284913	0.419308	0.628201	1.5708	0	0
3.62	1.01028	1.43264	-2.86506	0.888587	-0.154724	0.907779	0.0262973	-0.254501	0.063054	0.865192	0.0744628	0	0	0.27206	-0.0204924	-0.351123	0.368697	0.0475939	0	0	-0.14025	-0.0765457	-0.295668	-0.72229	-0.673503	0.253198	2.15103	1.5654	0	0	-0.213422	-0.292989	0.430402	0.633562	1.5708	0	0
3.63	0.987974	1.42957	-2.85273	0.89079	-0.161984	0.909263	0.0550728	-0.2595	0.0652006	0.9179	0.0288952	0	0	0.255878	-0.01247	-0.355911	0.36095	0.0467288	0	0	-0.141463	-0.0782953	-0.307802	-0.744088	-0.678254	0.236929	2.1537	1.55803	0	0	-0.210557	-0.303802	0.445053	0.642562	1.5708	0	0
3.64	0.932717	1.43155	-2.80957	0.892909	-0.168384	0.911509	0.0724773	-0.236836	0.105373	0.957209	-0.0172365	0	0	0.237934	-0.0112988	-0.359443	0.35399	0.0433315	0	0	-0.147743	-0.0729788	-0.317042	-0.761541	-0.682451	0.220356	2.15247	1.55188	0	0	-0.203827	-0.312098	0.455682	0.647251	1.5708	0	0
3.65	0.900392	1.44924	-2.78886	0.892723	-0.17381	0.911397	0.109055	-0.209355	0.110627	1.01038	-0.0611824	0	0	0.238537	-0.034416	-0.378686	0.36802	0.0552486	0	0	-0.145013	-0.0554706	-0.327341	-0.778833	-0.683845	0.204886	2.15339	1.56625	0	0	-0.18753	-0.280821	0.0945056	0.662815	0.536536	0	0
3.66	0.833628	1.41932	-2.73907	0.895676	-0.181098	0.915805	0.120657	-0.245771	0.10587	1.0496	-0.0951996	0	0	0.177396	0.0222872	-0.326556	0.291826	0.0212355	0	0	-0.165351	-0.0791053	-0.331909	-0.823232	-0.608073	0.106183	2.14391	1.5708	0	0	-0.177818	-0.286963	0.103769	0.663288	0.55984	0	0
3.67	0.764393	1.42676	-2.68375	0.898043	-0.187486	0.917134	0.148546	-0.249018	0.103225	1.08529	-0.102181	0	0	0.179591	0.00357226	-0.371948	0.331879	0.0455312	0	0	-0.167876	-0.0680757	-0.335055	-0.815548	-0.686571	0.170979	2.14035	1.57078	0	0	-0.187845	-0.343553	0.495997	0.668961	1.5708	0	0
3.68	0.697327	1.42786	-2.62906	0.898923	-0.1932	0.919145	0.167924	-0.242678	0.0987436	1.11839	-0.0958844	0	0	0.161436	0.00252849	-0.375244	0.326937	0.0478299	0	0	-0.175697	-0.0634436	-0.341319	-0.827811	-0.68585	0.160552	2.13232	1.57079	0	0	-0.183597	-0.350925	0.494245	0.66995	1.5708	0	0
3.69	0.625013	1.43147	-2.56705	0.899608	-0.198644	0.921131	0.186251	-0.230265	0.092588	1.14976	-0.0738533	0	0	0.146379	-0.00304424	-0.380516	0.325957	0.05207	0	0	-0.182463	-0.0563527	-0.348595	-0.837442	-0.683614	0.153768	2.12173	1.57079	0	0	-0.18099	-0.358157	0.485139	0.670799	1.5708	0	0
3.7	0.509444	1.45602	-2.46	0.898569	-0.202632	0.921373	0.213203	-0.186238	0.0864966	1.17939	-0.0442999	0	0	0.151298	-0.0392636	-0.40026	0.345778	0.068679	0	0	-0.179753	-0.0311674	-0.353707	-0.845643	-0.677765	0.151221	2.10927	1.5708	0	0	-0.181764	-0.3686	0.471444	0.675074	1.5708	0	0
3.71	0.438649	1.4585	-2.39767	0.898235	-0.207179	0.923244	0.227942	-0.159862	0.0752875	1.20162	-0.0270542	0	0	0.137707	-0.0456331	-0.404351	0.340891	0.0705759	0	0	-0.184537	-0.0277246	-0.361139	-0.850831	-0.671855	0.14998	2.0938	1.5708	0	0	-0.179495	-0.375792	0.458775	0.66898	1.5708	0	0
3.72	0.353185	1.46113	-2.32081	0.898792	-0.211826	0.925194	0.244363	-0.146912	0.0650376	1.21607	-0.0101071	0	0	0.122974	-0.048975	-0.401378	0.331775	0.0674091	0	0	-0.190468	-0.0210064	-0.368338	-0.853668	-0.666534	0.150531	2.07616	1.5708	0	0	-0.176815	-0.381152	0.445905	0.661831	1.5708	0	0
3.73	0.27319	1.46042	-2.2508	0.898951	-0.216323	0.927481	0.258052	-0.136252	0.055754	1.22517	-0.000981027	0	0	0.0962266	-0.0404523	-0.375375	0.296566	0.0535812	0	0	-0.197658	-0.0177676	-0.374518	-0.853655	-0.660717	0.154462	2.05576	1.5708	0	0	-0.175229	-0.387797	0.434603	0.656133	1.56109	0	0
3.74	0.187036	1.46889	-2.17183	0.899431	-0.220609	0.928264	0.279785	-0.120049	0.0412711	1.23348	0.00866321	0	0	0.104175	-0.0624188	-0.412852	0.327348	0.0692854	0	0	-0.196633	-0.00703161	-0.381356	-0.857057	-0.654614	0.15395	2.03649	1.5708	0	0	-0.174598	-0.393492	0.426329	0.653787	1.48517	0	0
